<svg id="Capa_1" data-name="Capa 1" xmlns="http://www.w3.org/2000/svg" viewBox="0 0 800 800"><defs><style>.cls-1{fill:#fed500;}.cls-2{fill:#1e1ef0;}</style></defs><circle class="cls-1" cx="502.34" cy="270.91" r="192.11"/><path class="cls-2" d="M553.89,419.35q-72.92-73-145.78-146c-3.61-3.62-5.77-3-9.15.09-38.3,35-83.71,52.53-135.34,53.24-17.65.24-35.33-2.15-53.65-3.38C175.36,452.11,140.46,582,105.56,711.86l1.28.35L288.29,530.77C284,524.49,281,517.34,281,509.19a39.24,39.24,0,1,1,39.24,39.23c-9.16,0-17.21-3.63-23.88-8.89l-175.93,176c-1.28,1.29-2.34,2.78-4.77,5.67L504.88,616.58c-13.9-73.08,1.35-138.05,52.25-193.27C555.81,421.68,555,420.41,553.89,419.35Z"/><path class="cls-2" d="M609.42,364.89q-73.09-73.12-146.14-146.3c-3.59-3.61-5.79-3.18-9.06.16-12.6,12.86-25.41,25.51-38.11,38.26-1.2,1.21-2.18,2.66-3.28,4L566.47,414.67l46-46C611.32,367.2,610.47,365.94,609.42,364.89Z"/></svg>