<svg id="Capa_1" data-name="Capa 1" xmlns="http://www.w3.org/2000/svg" viewBox="0 0 800 800"><defs><style>.cls-1{fill:#fed500;}.cls-2{fill:#1e1ef0;}</style></defs><circle class="cls-1" cx="444.31" cy="307.15" r="202.55"/><path class="cls-2" d="M502.92,233.92a34,34,0,0,1,33.93,32.36l3.58,75.88H527.5c-2.51-19.08-26.61-63.69-38.28-70s-27.07-9.36-46.13-9.36h-31a34,34,0,0,0-34,34V615.42q0,42.55,9.19,53.11,12.95,14.28,39.82,14.27h16v12.6H247.41V682.8h16.34q29.26,0,41.51-17.68,7.5-10.9,7.5-49.7V296.81a34,34,0,0,0-34-34H257.28q-32.34,0-45.94,4.78c-11.81,4.31-43.69,53.67-45.26,74.54H153.14l3.82-76a34,34,0,0,1,33.92-32.26Z"/></svg>