<svg id="Capa_1" data-name="Capa 1" xmlns="http://www.w3.org/2000/svg" viewBox="0 0 800 800"><defs><style>.cls-1{fill:#fed500;}.cls-2{fill:#1e1ef0;}</style></defs><circle class="cls-1" cx="553.9" cy="349.5" r="187.49"/><polygon class="cls-2" points="580.14 608.55 531.08 608.55 531.08 637.99 609.58 637.99 609.58 559.49 580.14 559.49 580.14 608.55"/><rect class="cls-2" x="261.88" y="608.55" width="144.42" height="29.44"/><polygon class="cls-2" points="88.04 559.49 58.61 559.49 58.61 637.99 137.1 637.99 137.1 608.55 88.04 608.55 88.04 559.49"/><rect class="cls-2" x="58.61" y="415.1" width="29.44" height="82.02"/><polygon class="cls-2" points="58.61 352.74 88.04 352.74 88.04 303.68 137.1 303.68 137.1 274.25 58.61 274.25 58.61 352.74"/><rect class="cls-2" x="261.88" y="274.25" width="144.42" height="29.44"/><polygon class="cls-2" points="531.08 274.25 531.08 303.68 580.14 303.68 580.14 352.74 609.58 352.74 609.58 274.25 531.08 274.25"/><rect class="cls-2" x="580.14" y="415.1" width="29.44" height="82.02"/></svg>