<svg width="663" height="729" viewBox="0 0 663 729" fill="none" xmlns="http://www.w3.org/2000/svg">
<path d="M562.41 6.00552C568.398 -4.37033 584.307 0.942781 582.857 12.834L553.013 257.697C552.019 265.848 559.982 272.174 567.697 269.364L799.475 184.938C810.73 180.838 819.502 195.134 810.748 203.312L630.491 371.704C624.491 377.309 626.524 387.274 634.24 390.08L866.061 474.39C877.319 478.485 874.849 495.075 862.886 495.712L616.561 508.841C608.362 509.278 603.514 518.218 607.621 525.328L731.012 738.924C737.005 749.297 724.449 760.418 714.875 753.217L517.74 604.939C511.178 600.004 501.718 603.737 500.294 611.823L457.52 854.761C455.443 866.559 438.676 867.008 435.971 855.338L380.268 615.034C378.413 607.036 368.767 603.814 362.479 609.093L173.554 767.701C164.379 775.403 151.247 764.969 156.676 754.291L268.469 534.402C272.19 527.083 266.871 518.415 258.661 518.417L11.9852 518.478C0.00597594 518.481 -3.34731 502.047 7.6755 497.357L234.656 400.771C242.211 397.556 243.708 387.497 237.417 382.221L48.4133 223.708C39.2347 216.011 47.2297 201.266 58.6886 204.758L294.649 276.669C302.504 279.063 310.116 272.32 308.689 264.234L265.793 21.3171C263.71 9.52038 279.312 3.36429 285.846 13.4051L420.378 220.165C424.856 227.047 435.023 226.775 439.126 219.664L562.41 6.00552Z" fill="#FED500"/>
</svg>
